<svg xmlns="http://www.w3.org/2000/svg" height="222.02" viewBox="0 0 250 222.02037" width="250"><g transform="matrix(1.25 0 0 -1.25 -258.37 606.34)"><g transform="matrix(.32430 0 0 .32430 207.33 267.86)"><path d="m363.38 314.05c6.2549 4.5108 12.53 8.6777 18.686 12.576-4.7567-8.9533-5.9377-16.872-6.5808-21.312 0 0-0.0312-0.1986-0.0386-0.2416-2.5828-1.2536-5.9984-3.3045-10.259-7.1454-4.2974-3.872-7.2047-8.3072-8.9029-11.132-4.1107-0.9157-7.6937-2.0182-9.9965-4.7789-1.393-1.6715-1.8286-3.4275-2.6214-6.6149-0.7009-2.8259-1.6626-6.6965-3.183-10.085-0.4608-1.0255-0.8787-1.9353-1.2714-2.7844-2.0272 2.3176-4.3092 4.7656-6.6861 6.9513-3.6201 3.3282-8.1946 6.6772-12.027 9.3341 9.4275 8.4213 28.413 24.796 42.88 35.232zm-1.6463 352.75c-16.477-0.7942-27.445-11.333-32.473-17.447-19.268 6.1748-39.664 6.0577-57.823-0.5498-28.617-10.411-37.862-27.493-41.441-34.493-3.7105-0.6372-9.7416-2.2479-15.267-7.2714-2.2465-2.042-5.5495-6.5794-11.192-14.421-5.3376-7.421-11.981-16.654-15.586-20.06-10.749-10.157-15.525-11.751-21.584-11.346-3.8572 0.2579-7.2477-2.3042-8.0597-6.0918-0.1023-0.4772-0.1497-0.978-0.1497-1.4967 0-6.8728 8.5487-17.09 15.445-19.652 3.1252-1.1588 6.0282-1.8464 8.651-2.2554-0.5749-1.7871-1.0788-3.6409-1.4122-5.4369-0.4519-2.4435-1.916-7.6403-3.2082-12.222-2.1442-7.6063-3.3489-11.883-3.3489-14.775 0-2.3413 0.7913-3.7743 2.5161-5.3272 1.6701-1.5071 3.4735-2.0287 5.2339-2.0168-0.4742-1.9101-1.0314-3.9506-1.7278-6.1096-1.0951-3.3949-3.3445-7.8627-5.1524-11.452-1.8834-3.7417-3.6172-7.184-3.6172-10.205 0-2.1161 0.8506-4.0262 3.0971-5.6888 0.9736-0.7217 2.8436-1.9961 8.2198-1.7916-0.1749-0.2904-0.5172-0.855-0.5172-0.855-2.3932-3.7757-4.1832-6.5986-4.1832-9.5134 0-1.0047 0.2119-2.0183 0.6846-3.0867 0.775-1.7545 2.1412-2.9933 3.8409-3.8661-2.0049-1.5456-3.7654-3.4468-4.8812-5.7599-0.858-1.7753-1.2877-3.6631-1.2877-5.5614 0-1.7396 0.3616-3.4882 1.0847-5.1701 0.8358-1.9397 1.8642-3.4319 3.0111-4.6648-1.1025-0.4683-2.1679-0.9321-3.1815-1.393-5.1835 18.083-11.843 27.218-19.857 27.101-1.547-0.0222-3.4956-0.3023-5.4546-1.1217-0.5542 1.6122-1.0847 3.1741-1.5337 4.5003l-3.2038 9.2082c-10.892 29.189-20.765 28.491-24.01 28.263-10.148-0.7172-12.816-10.7-13.362-20.322-1.9145 1.9398-4.2128 3.0912-7.2076 2.8778-1.636-0.1171-2.9593-0.6209-4.1581-1.2655-1.7456 3.6972-3.6764 7.3707-5.634 10.164l-1.1855 1.7027c-5.8266 8.3872-13.806 19.876-24.513 15.402-8.7755-3.6675-11.096-12.001-11.096-21.254 0-5.6355 0.86095-11.61 1.6478-17.078 0.45641-3.1623 1.058-6.5631 1.7234-9.9743-0.70388 0.2326-1.4048 0.5142-2.1146 0.6076-3.4423 0.4519-6.6875-0.6609-9.14-3.1356-3.5949-3.629-4.7893-7.6389-4.7893-11.508 0-4.8693 1.8923-9.5134 3.2675-12.89 0 0 0.735-1.8464 0.83576-2.1013-0.12596-0.0607-0.24302-0.1096-0.37342-0.1808-6.7824 6.2934-16.619 13.271-25.356 8.5547-3.0393-1.6404-5.1494-4.3581-6.1037-7.8611-0.38528-1.4137-0.55569-2.9326-0.55569-4.5123 0-10.706 7.8123-24.244 9.5845-27.177 0.87873-1.4522 2.5828-4.4603 4.3077-7.5366-2.0983-0.7454-4.2588-2.2391-5.4932-5.3243-0.51124-1.2773-0.73648-2.5562-0.73648-3.8246 0-3.5624 1.7841-7.0314 4.0469-10.082-2.7533-0.5482-5.0264-2.0523-6.5097-4.8204-4.5181 1.4211-16.491 4.2973-19.886-3.9195-0.37366-0.94-0.55-1.91-0.55-2.88 0-7.1765 9.5608-14.888 13.781-17.946-0.53346-1.101-0.90392-2.2658-0.90392-3.4972 0-0.5497 0.05631-1.1039 0.16745-1.6552 1.0936-5.3731 6.6579-9.3548 18.72-16.247 0 0 0.6446-0.3719 1.2699-0.7335-0.07261-0.246-0.18967-0.4386-0.24598-0.7054-0.13485-0.6431-0.20005-1.2714-0.20005-1.8849 0-7.7203 10.125-12.89 13.626-14.678 0 0 0.6283-0.2978 1.513-0.7172-2.4613-3.7164-4.0069-7.6863-4.3611-11.95-0.04297-0.5128-0.06223-1.0196-0.06223-1.5204 0-9.8854 8.0997-17.3 16.195-18.185 0.01926-0.001 0.48604-0.0474 1.2121-0.0933 0.20746-1.0669 0.50235-2.1902 1.0328-3.9224 0.01481-0.0504 0.79426-2.2124 2.1961-4.6649-2.4287-0.3215-5.3702-0.8669-9.1252-1.7841-7.9367-1.9397-19.323-6.0563-25.44-8.2672l-3.0259-1.0847c-11.046-3.875-11.795-8.4791-12.041-9.9906-0.06669-0.4149-0.10077-0.8268-0.10077-1.2373 0-2.3413 1.0743-4.5804 2.9578-6.0415 0.56459-0.4386 1.1425-0.7661 1.7189-1.021-10.02-6.01-14.142-16.15-14.142-23.15 0-0.8136 0.053346-1.5812 0.16004-2.2969 0.50383-3.3801 1.1514-5.9496 1.713-7.7574-0.612-2.1191-1.061-4.6308-1.061-7.47 0-5.5021 1.6004-12.036 6.5408-18.351 9.9965-12.778 30.507-18.111 46.399-17.727 12.058 0.2919 18.84 2.1842 22.248 3.1815 18.673-6.1467 39.494-8.0198 61.919-5.5229 23.905 2.6629 45.989 11.191 55.637 15.336 3.2022-2.731 7.7411-5.1849 13.51-5.4309 14.011-0.6017 22.411 13.154 28.782 26.688 2.4658 5.2413 4.3314 9.4127 5.8118 12.845 0.7987-0.7483 1.6181-1.4626 2.4672-2.085l1.5841-1.178c4.1773-3.1267 8.9103-6.6698 15.487-5.4858 2.6451 0.4757 4.6174 1.7352 6.0993 3.2512 1.5737-1.1307 3.3652-2.3576 5.6665-3.7535l0.9662-0.5854c3.3579-2.0405 6.6446-4.035 9.8142-5.5257-0.5897-0.775-1.1825-1.5337-1.7604-2.3991-7.4996-11.206-9.8735-21.162-9.8735-28.782 0-5.6177 1.2907-9.9639 2.7725-12.6 2.903-5.1613 7.0491-5.5539 8.6955-5.4813 0.7261 0.0296 7.1187 0.5231 7.6151 8.0612 0.292 4.3803 6.0608 10.677 10.85 15.186 3.2926 3.1 6.2178 5.0471 8.522 6.3067 1.5367-2.7814 3.5046-5.96 5.7199-8.5562 3.066-3.5949 8.1057-6.1051 11.785-7.9397 0 0 1.1973-0.6209 1.8108-0.9365 0.246-0.3112 0.5453-0.6905 0.5453-0.6905 2.8807-3.7491 8.8763-11.554 21.785-11.686 12.942-0.1304 29.146 12.72 36.52 21.887 8.94 11.114 13.658 21.62 15.626 26.701 5.2087 2.817 16.08 9.9743 31.502 26.743 25.351 27.565 36.487 59.862 38.463 66.058 4.0425 12.688 6.0504 22.928 6.0504 31.16 0 5.7051-0.9647 10.446-2.8822 14.369-3.9995 8.1783-9.6661 11.714-14.329 12.931-4.2825 6.5675-15.178 20.362-33.081 24.009-4.7671 0.9706-9.2052 1.4404-13.408 1.5412 6.9469 3.8364 12.147 6.7527 15.251 8.974 2.9859 2.1383 26.569 19.639 26.569 39.161 0 2.3013-0.3275 4.6292-1.0551 6.9646-3.7876 12.156-14.217 17.338-22.766 19.563 0.2623 1.1617 0.449 2.3635 0.449 3.6438 0 1.0462-0.0978 2.1294-0.3112 3.2452-0.6194 3.2171-1.9886 5.7466-3.8972 7.7649 15.733 0.7928 34.096 2.6569 51.799 6.7587 24.733 5.7302 39.146 10.832 50.726 14.93 5.2769 1.8671 9.8335 3.4808 14.636 4.9123 11.226 3.3445 20.082 5.6206 24.839 6.8431 4.7063 1.2092 5.1983 1.3352 6.4015 2.1383 2.368 1.5767 3.7876 4.2366 3.7876 7.0358 0 0.1689-0.006 0.3379-0.0163 0.5083-0.1808 2.9296-1.8775 5.4739-4.5374 6.8076-0.006 0.003-1.144 0.5097-1.144 0.5097-15.208 6.529-28.966 14.364-37.828 19.786-9.4171 5.76-18.484 12.624-25.169 18.018 8.0597 1.8805 17.745 3.9017 23.665 4.3033 22.574 1.5278 37.095-2.8629 42.29-4.8219 7.2092-2.7162 11.748-7.0002 11.792-7.0417l8.2627-7.8849 3.8632 10.73c0.5898 1.6567 14.023 41.063-24.2 82.087-37.267 39.995-93.334 45.887-131.76 34.601-5.4502 4.8145-16.567 13.882-25.642 16.4-13.876 3.8468-22.521 1.7945-27.58-0.8566-7.501 4.659-23.1 12.965-38.104 12.24m55.848-524.12c0-6.7216-5.4473-12.172-12.17-12.172-6.7231 0-12.172 5.4502-12.172 12.172 0 6.7217 5.4487 12.172 12.172 12.172 6.7231 0 12.17-5.4502 12.17-12.172m0 0.1067c0-6.7216-5.4473-12.172-12.17-12.172-6.7231 0-12.172 5.4502-12.172 12.172 0 6.7216 5.4487 12.172 12.172 12.172 6.7231 0 12.17-5.4503 12.17-12.172m0-0.1067c0-6.7216-5.4473-12.172-12.17-12.172-6.7231 0-12.172 5.4502-12.172 12.172 0 6.7217 5.4487 12.172 12.172 12.172 6.7231 0 12.17-5.4502 12.17-12.172" fill="#fff"/><path d="m454.72 165.7c-0.70376-0.003-1.406 0.0111-2.1055 0.0449-23.921 1.1539-37.072 22.748-37.072 22.748s-1.1713 0.46882-3.0606-0.21093c-9.0262-3.2508-37.436-12.443-70.018-0.58789-41.427 15.07-46.367 41.182-49.299 42.881-0.95575 0.55201-10.366 0.058-18.523 7.4746-5.0937 4.6308-24.201 34.343-33.342 42.979-13.583 12.833-22.213 17.477-33.957 16.693-2.3154-0.15563 5.3219 13.319 12.885 16.127 12.273 4.5566 21.328 2.3398 21.328 2.3398s-4.9406 9.7796-6.3965 17.645c-1.4578 7.863-8.9296 30.966-7.959 31.84 0.96875 0.87425 6.0631-2.3252 7.6172-2.8125 1.554-0.48525 4.5898-1.627 4.5898-1.627s-0.83373 10.75-5.209 24.318c-3.0859 9.5709-11.517 23.069-10.395 23.898 1.2891 0.95388 7.304 0.32577 10.701-0.25585 3.397-0.58163 8.8086-1.9785 8.8086-1.9785s-2.1799 8.3032-4.123 12.186c-1.9412 3.8844-7.6756 11.666-7.1719 12.809 0.29825 0.676 6.0602 2.4198 15.957 1.0195 8.6058-1.217 15.629-5.0469 15.629-5.0469s-1.889 3.4778-2.7949 5.7988c-0.85387 2.1839-1.3785 6.9193-2.4473 7.6953-1.0689 0.77612-12.731 1.6562-17.086 2.8398-5.6866 1.5449-13.65 6.5412-10.775 13.219 3.0804 7.1555 8.8341 6.1656 22.328 7.9141 13.494 1.7468 16.695 3.3965 16.695 3.3965s-13.851-0.51989-26.219 2.0215c-11.268 2.3154-27.656 11.277-27.656 11.277s-8.6171-38.137-18.555-37.99c-9.3208 0.13525-8.0358 11.32-9.0156 11.199-1.8856-0.2315-8.9565-23.36-12.535-32.955-3.536-9.4726-12.433-29.912-20.684-29.328-8.252 0.58162-8.6245 15.397-8.041 30.152 0.58162 14.756 0.2933 30.09-0.0957 30.09-0.38888 0.00001-4.367-7.1436-8.0586-19.219-3.1136-10.19-6.2109-19.456-9.5098-19.221-5.9385 0.42413-5.7315 15.048-6.2168 14.854-0.4853-0.19275-7.6678-20.479-14.268-29.896-6.6016-9.4152-13.963-21.079-20.967-18.15-10.64 4.4455-8.721 20.641-6.2148 38.049 2.6747 18.567 9.6211 44.656 9.6211 44.656s-16.518-28.867-24.123-21.191c-6.7368 6.798-1.4999 16.097 1.3008 23.516 2.9174 7.7259 7.4311 14.884 6.9902 15.24-1.7652 1.4206-7.5065-5.5587-11.357-3.9824-4.1454 1.6985-2.015 7.2193-2.793 7.123-0.77796-0.0964-19.397-22.975-29.34-17.607-9.9858 5.3901 4.3699 31.836 7.1836 36.496 2.8155 4.6604 11.94 21.163 12.135 21.646 0.19264 0.48525-3.6884 0.68043-6.5039 0.87305-2.8136 0.1945-5.5133-0.52631-6.4395 1.7891-0.74462 1.8579-0.06491 5.883 7.6055 13.744 7.6704 7.8612 12.685 11.908 12.137 12.615-1.2188 1.58-22.198-7.1954-24.467-1.7441-1.4485 3.4786 3.3965 7.7637 3.3965 7.7637s-7.8308-1.5256-13.334-3.3594c-6.483-2.1599-13.484-2.4324-14.234-0.61524-0.89281 2.1598 8.645 12.003 15.436 16.404 14.698 9.5264 17.375 8.2526 17.666 8.8359 0.29081 0.58162-17.735-1.8516-16.984 1.8438 0.89651 4.4048 16.839 12.816 21.889 15.826 5.0475 3.01 16.262 7.8642 15.971 8.3496-0.29266 0.48337-3.0089 0-6.1152 0s-6.691-0.15933-7.0781 1.6855c-0.38898 1.8449 2.1626 5.5567 11.932 10.545 8.854 4.5234 12.909 5.7257 12.715 6.2109-0.19264 0.48538-10.291 7.0136-11.258 18.637-0.6909 8.3206 6.603 14.077 11.939 14.658 5.3383 0.5835 9.125-0.38867 9.125-0.38867 0.22598 7.5408 0.03274 7.0087 1.5312 11.904 1.4559 4.7568 5.267 8.2871 5.3633 8.2871 0.09631 0-0.7761 2.4323-1.6504 4.2754-0.87429 1.8449-1.5547 5.0469-1.5547 5.0469s-2.8599-1.413-17.473 2.1602c-11.408 2.7896-29.184 9.4905-34.715 11.432-5.5328 1.9412-9.7416 4.8552-8.8691 5.5332 0.87429 0.67788 3.6882 0.19404 7.8633 1.0664 4.1732 0.87438 14.947 3.8838 20.189 4.3691 5.242 0.48525 9.5137 0.96875 9.5137 0.96875s-0.13528 1.1678-0.03711 2.5254c0.09817 1.3596 0.23047 3.1055 0.23047 3.1055s-2.234 1.2637-4.2715 2.9141c-2.0394 1.6486-3.6895 3.8809-3.6895 3.8809s-13.295-9.8592-26.209-3.6836c-13.244 6.3349-16.128 19.224-15.436 23.883 1.1114 7.4574 2.8086 11.006 2.8086 11.006s-6.3511 12.99 4.3145 26.623c10.125 12.944 32.686 19.035 50.482 18.605 19.142-0.463 26.65-4.3932 28.303-4.2969 1.6504 0.0944 29.428 12.477 76.105 7.2774 37.987-4.2306 72.902-21.164 72.902-21.164s4.832 8.3048 14.949 8.7363c8.1076 0.34825 16.328-4.9489 27.201-28.051 10.875-23.104 12.814-30.324 12.814-30.324s5.5671 9.0781 11.393 13.35c5.8236 4.2695 9.3678 7.5578 14.223 6.6836 4.853-0.87437 5.6023-8.7356 6.4766-8.832 0.8725-0.0981 3.5988 3.9415 14.672 10.652 8.3705 5.0752 17.914 11.119 22.324 8.9551 1.6411-0.80387-3.0957-10.58-3.0957-10.58l2.4141 1.0996c-0.0611-0.3205 0.94158 2.077 4.1738 4.6035 3.0174 2.3561 6.8926 3.0309 6.8926 3.4199s-10.028 3.4912-18.539 16.211c-17.064 25.5-9.6544 44.331-6.1035 44.178 2.3061-0.1-4.0131-6.6366 17.133-26.549 12.01-11.31 21.49-12.865 21.49-12.865s4.4408 10.24 9.7051 16.404c3.6546 4.2844 12.618 7.7665 15.531 9.6133 2.9119 1.8449 7.1444 13.551 22.426 13.707 11.953 0.12038 30.066-13.615 38.338-23.9 14.3-17.776 19.318-34.258 19.318-34.258s14.588-5.3924 39.992-33.016c26.456-28.764 40.967-63.102 46.072-79.115 7.8612-24.667 8.94-40.873 4.4648-50.027-6.2794-12.842-15.207-11.615-15.207-11.615s-12.578-24.459-37.584-29.553c-22.756-4.6345-41.811-1.6577-54.24 18.877-10.436 17.243-7.9722 31.427-10.689 32.494-2.7155 1.067-7.174 2.7325-14.064 8.9434-6.8925 6.2125-10.774 14.477-11.355 15.059-0.5835 0.5835-9.368 1.4969-11.357 3.8828-0.96688 1.1595-2.2394 10.538-5.918 18.736-7.2185 16.078-8.6406 16.211-8.6406 16.211s-7.7549-10.789-16.025-18.395c-8.4188-7.7426-22.319-16.258-22.9-16.938-0.5835-0.67975-0.29014-0.38942 0.19336-1.2637 0.48525-0.87238 36.639-33.45 62.125-51.834 39.156-28.242 80.404-47.49 91.635-55.527 11.27-8.0631 34.017-29.474 28.443-47.369-6.3664-20.431-34.922-20.047-34.922-20.047s8.0257-5.4769 6.3809-14.021c-1.3521-7.0295-7.3725-11.207-33.197-12.182-19.338-0.72975-30.48-0.3412-30.576-0.43945-0.0981-0.0981 0.77439-2.4248 1.2598-4.5606 0.48712-2.1356 0.77687-4.6589 0.875-4.5625 0.0983 0.0962 68.133 6.8068 128.52-7.1836 44.224-10.245 61.208-18.714 81.148-24.656 21.576-6.4275 35.981-9.6715 36.564-10.059 0.58163-0.389 0.99407-1.4659 0.0234-1.9512-0.97062-0.48537-21.647-8.7736-49.398-25.75-24.284-14.856-46.4-35.041-46.4-35.041s33.256-8.9516 48.729-9.998c27.892-1.8894 47.341 3.0506 56.756 6.5996 11.132 4.1954 17.906 10.807 17.906 10.807s16.188-45.439-28.303-93.188c-43.509-46.696-112.03-55.596-160.35-39.234 0 0-19.162-18.316-32.109-21.906-24.541-6.8052-31.795 3.3848-31.795 3.3848s-23.467-17.24-45.283-17.334zm-264.83 499.32s2.1932 1.7194 1.7227 7.5078c-0.4705 5.7885-1.5215 10.795-1.5215 12.984 0 2.1912 0.89391 6.8836 0.73828 7.5098-0.15562 0.62612-0.83515 0.97534-3.4414 1.2773-2.5042 0.28888-4.0684 0.75781-4.0684 0.75781s2.3478-7.823 2.8164-10.17c0.46863-2.345-1.2542-6.725-0.4707-12.045 0.6205-4.225 4.2246-7.8223 4.2246-7.8223zm-56.637 15.174s1.2547 0.94041 1.4102 2.0352c0.15562 1.0948 0.93958 5.3198 1.4082 7.3535 0.46863 2.032 1.7207 5.1621 1.7207 5.1621-0.00001 0-3.5993 1.876-6.5703 2.9707-2.973 1.0946-5.6337 2.3488-6.2598 2.1914-0.62608-0.1575-1.5624-4.065-1.0938-5.4746 0.46863-1.4096 0.625-4.3786 0.625-5.1621s1.8764-2.6614 4.3789-4.6934c2.5042-2.0339 4.3809-4.3828 4.3809-4.3828zm373.74 119.34c-2.1524 0-4.1557 0.53688-6.0117 1.6094s-3.3202 2.5384-4.3945 4.3926c-1.0761 1.8542-1.6133 3.8597-1.6133 6.0176 0 2.1561 0.53485 4.1614 1.6055 6.0156 1.0725 1.8541 2.5327 3.3161 4.3887 4.3867 1.8522 1.0669 3.8638 1.5996 6.0254 1.5996 2.1524 0 4.1537-0.53688 6.0078-1.6094 1.856-1.0724 3.318-2.5361 4.3887-4.3848 1.0706-1.8485 1.6055-3.8517 1.6055-6.0078 0-2.1468-0.53903-4.1478-1.6133-6.002-1.0762-1.8541-2.5404-3.3204-4.3945-4.3984-1.8561-1.078-3.8529-1.6191-5.9942-1.6191zm0 1.9688c2.7266 0 5.0609 0.98202 7.0039 2.9473 1.9431 1.9671 2.9141 4.3325 2.9141 7.1035 0 2.7674-0.96875 5.134-2.9062 7.0938-1.9375 1.9616-4.274 2.9395-7.0117 2.9395-2.7488 0-5.0919-0.97564-7.0312-2.9316-1.9356-1.9522-2.9062-4.3231-2.9062-7.1016 0-2.771 0.97302-5.1364 2.916-7.1035 1.9412-1.9652 4.282-2.9473 7.0215-2.9473zm-4.7832 3.5879v12.967h2.082v-5.5h1.2168c0.77787 0 1.4003 0.21674 1.8672 0.64648 0.46487 0.42976 1.1051 1.3723 1.9238 2.8281l1.1289 2.0254h2.5469l-1.5606-2.5176c-0.65763-1.0521-1.1987-1.8103-1.6211-2.2734-0.42225-0.46299-0.87182-0.79421-1.3516-0.99609 1.0744-0.087 1.9534-0.4708 2.6387-1.1543 0.6835-0.6835 1.0254-1.5228 1.0254-2.5156 0-0.66313-0.19499-1.288-0.58399-1.877-0.389-0.58725-0.90644-1.0059-1.5547-1.2559-0.64837-0.25375-1.7553-0.37696-3.3242-0.37696h-4.4336zm2.082 1.7383h2.3672c1.2076 0 2.0496 0.1446 2.5293 0.4336 0.47975 0.289 0.71875 0.797 0.71875 1.5156 0 0.68913-0.24757 1.1931-0.74219 1.5098-0.49275 0.31862-1.2771 0.47656-2.3496 0.47656h-2.5234v-3.9356z" transform="matrix(.8 0 0 -.8 0 792)" fill="#0051ba"/><path d="m456.85 172.48c-2.9575 0.004-6.1052 0.29087-9.5098 0.89843-16.632 2.9691-26.49 19.709-26.49 19.709s10.623 6.599 17.223 10.141c6.1459 3.2971 8.7668 4.3503 13.561 4.8301 4.7956 0.47975 9.4556 0.45844 9.8242 1.8828 0.31488 1.2151-2.1943 4.2009-5.7988 4.2324-9.2968 0.0796-6.9009 0.94231-37.947-15.117-27.562-14.257-50.503-10.057-50.961-9.9863-3.0804 0.47612-32.742 3.4962-52.049 21.832-10.391 9.8709-14.217 20.995-13.932 22.908 0.52413 3.5009 2.2536 4.3044 3.3965 7.4199 1.0058 2.7415 0.95834 7.9352-0.59766 7.6758-1.9522-0.32788-5.0962-10.44-13.143-10.588-4.3455-0.0815-10.473-0.28477-22.463 18.74-7.8445 12.444-18.359 24.803-22.553 29.119-4.1954 4.3159-15.875 13.925-19.578 15.314-7.0814 2.6561-8.4948 0.97143-8.9726 1.8106-0.47975 0.83913 3.4718 6.6824 14.004 7.4844 13.72 1.0466 24.709-7.6036 25.311-7.2832 0.23525 0.126-9.2515 16.081-11.828 23.088-2.8599 7.7759-3.8645 12.888-5.3945 17.506-1.4336 4.3325-2.2609 8.8736-3.1797 10.391-0.46487 0.76687 11.593-2.6714 19.68-8.6914 9.4579-7.0442 13.762-13.281 13.762-13.281s-0.64272 10.146-8.6836 16.34c-7.587 5.844-12.963 7.7291-14.9 10.541-0.35388 0.51488-0.49919 11.143-3.3203 20.307-5.0086 16.271-9.9199 23.676-9.9199 23.676s8.1237-0.0921 19.512-7.4902c11.075-7.198 15.783-12.268 15.783-12.268s0.92646 6.1988-6.9199 13.08c-6.5628 5.7532-9.5595 6.7592-10.223 7.6445-0.36113 0.4835-1.8791 8.1636-3.3184 12.283-2.1152 6.0644-5.8375 10.893-5.293 11.658 0.602 0.84462 11.185-1.2895 23.273-9.6211 8.0945-5.5791 17.143-11.387 17.143-11.387s-5.9555 8.0712-10.234 17.346c-5.2735 11.427-7.9269 17.746-7.2656 25.213 0.037 0.43162 7.4299-3.7264 14.109-6.0195 5.1641-1.7726 11.308-3.4199 18.26-11.242 5.0254-5.6569 10.787-12.469 10.787-12.469s-3.0612 7.6669-4.2578 14.859c-1.1984 7.1925-1.368 17.826-0.48437 18.791 0.4575 0.50012 17.5-9.8857 22.744-15.895 8.252-9.456 15.334-22.613 15.334-22.613s0.48306 0.72923 0.60156 1.5684c0.1205 0.841-1.4891 17.424-0.96484 23.5 0.628 7.3202 1.0069 9.2549 1.5293 18.711 0.139 2.5172-0.15685 4.3477 0.4414 4.707 0.59825 0.36124 1.4684-0.93172 3.8652-2.0117 2.3969-1.078 18.179-6.9452 26.963-14.766 15.409-13.722 18.746-22.297 18.746-22.297s-3.2962 17.347-3.5371 23.504c-0.4 10.182 0.85436 26.682 2.0527 27.521 1.1966 0.839 6.4393-4.1434 13.039-7.9258 3.2304-1.8524 9.4782-5.1437 19.877-19.195 6.535-8.8261 11.315-15.057 12.086-15.271 0.79287-0.21863-4.2442 13.292-4.2812 17.727-0.0389 4.9494 2.3522 12.837 3.6211 16.297 1.0058 2.7359 1.2489 4.2257 2.0527 8.0488 0 0 11.551-11.227 18.627-18.697 15.98-16.874 14.975-26.412 14.975-26.412-23.741-2.6154-46.238-10.353-60.201-15.41-36.657-13.279-57.031-30.096-78.268-50.018-12.314-11.547-16.389-23.289-13.77-29.359 1.5336-3.5564 5.1152-5.0039 5.1152-5.0039s-17.824-20.886-15.131-39.678c1.58-11.03 17.348-15.325 46.643-9.6973 37.49 7.2 75.531 28.451 75.531 28.451s-14.455-10.036-20.088-17.949c-5.6365-7.9111-8.5117-14.145-8.5117-14.145s-9.7745 1.5928-20.02-1.0801c-10.275-2.6804-19.965-4.6702-27.279-17.521-2.2228-3.9046 0.66216-2.4624 3.7852 1.5645 0.23338 0.30012 2.5242 2.3437 5.7676 2.5234 4.077 0.226 16.441-1.7308 34.85-17.848 19.153-16.769 35.509-29.384 46.896-24.947 11.388 4.4344 15.465 15.103 8.752 23.855-6.7146 8.7502-8.2754 12.348-8.2754 12.348s2.5167 1.5584 6.2324 5.3945c3.7176 3.8361 7.793 7.5508 7.793 7.5508s13.072-16.421 45.678-37.4c32.608-20.979 48.676-26.861 48.676-26.861s-5.3974-9.0097-19.66-15.611c-9.8282-4.5474-17.36-5.5029-21.543-5.0195-3.2562 0.37425-7.1594 1.9684-7.3242 4.1856-0.0981 1.304 1.9737 2.5736 5.0078 4.1055 3.6656 1.8485 6.1432 2.2983 6.6211 3.2578 0.48163 0.95762 1.3591 3.1634 0.56446 3.2598-4.025 0.48338-8.5157-1.1971-10.705-2.4141-5.6329-3.1396-18.751-12.395-28.127-17.719-7.167-4.0691-14.319-6.6042-23.191-6.5918zm133.65 166.18c-0.53078-0.007-1.1104 0.0669-1.7129 0.27343-8.3649 2.8655-24.661 8.5656-33.676 11.852-9.2004 3.3564-32.711 13.836-37.387 15.518-4.6715 1.6819-6.2696 2.8505-7.7774 2.9043-3.9936 0.1445-7.3801 1.2142-5.3555 2.459 0.34638 0.21112 25.674 0.37762 42.604 0.0312 20.375-0.41863 48.116-0.53749 50.359-0.72461 2.7859-0.2315 7.1783-2.1148 16.627-6.9141 9.6949-4.9271 11.752-5.232 13.443-5.7637 2.5765-0.8095 1.0723-1.332 1.0723-1.332-0.55937-0.37237-9.378-3.3865-17.076-7.293-6.2645-3.1786-18.377-10.246-18.377-10.246s-1.1518-0.74179-2.7441-0.76367z" transform="matrix(.8 0 0 -.8 0 792)" fill="#e8000d"/><path d="m389.08 260.94c-0.5468 0.5483-9.6112 4.5241-15.29 5.5302-5.3924 0.9543-14.811 0.0682-15.291-0.2059-0.4772-0.2727-2.7296-6.6194-3.6172-9.2126-0.8876-2.5947-3.5653-8.8718-3.3445-9.2156 0.6149-0.9573 5.5969 1.2966 14.881-1.1603 8.002-2.119 14.129-5.1879 14.54-5.2561 0.409-0.0681 1.9116 5.1198 3.8217 9.6246 1.5189 3.5831 3.755 8.6006 4.0276 9.0096 0.2727 0.409 0.2727 0.8861 0.2727 0.8861zm13.175 2.2539c-0.4801-0.6831-4.9789-9.1785-7.7826-14.744-4.7789-9.4883-5.4606-17.746-7.0298-18.225-0.7039-0.2148-8.4643 4.3685-19.864 6.7587-8.8955 1.8627-20.886 2.2524-21.297 2.3206-0.409 0.0681-0.615 0.5453-0.8861 1.0224-0.2727 0.4787-0.7513 1.2966-0.8891 1.5026-0.1364 0.206-0.2727 0.6135-0.3409 1.0921-0.0667 0.4801 0.0682 1.7071 0.2045 2.3206 0.1378 0.6135 5.6355 12.15 6.7957 15.632 1.1603 3.4809 4.2337 11.945 5.188 12.49 0.9558 0.5453 9.995 3.6186 24.944 0.6149 10.742-2.1575 20.343-7.8493 21.435-9.7623 0 0 0-0.3394-0.4772-1.0225" fill="#e51636"/><path d="m131.48 225.09c-2.1072 2.2657-5.0916 5.3287-5.5673 5.4087-0.4771 0.0785-5.6073-1.4715-7.8345-2.4258-2.2272-0.9558-8.3931-3.8587-8.5902-4.1773-0.1986-0.3171 3.3001-4.0943 5.5273-6.7987 2.0775-2.5221 5.3687-6.0444 5.7258-6.1244 0.3586-0.08 6.0059 2.4243 8.3131 3.18 2.3058 0.7572 8.0331 2.9829 8.1916 3.023 0.1601 0.0414-3.6972 5.6887-5.7658 7.9145zm20.798-12.323c-0.7542-0.6002-10.577-1.7012-20.559-4.9212-7.2551-2.3398-15.985-7.1291-16.383-6.9306-0.3986 0.1986-3.5415 5.5762-9.1874 11.821-5.6473 6.2444-6.1244 4.9997-6.7986 8.8154-0.16004 0.9054 2.6228 3.4601 7.2373 6.286 4.6129 2.8244 6.9572 3.7757 6.9572 3.7757s1.1084-0.6876 3.4216-0.9558c1.3514-0.1556 5.7984 1.1811 7.2773 2.6273 1.9486 1.9101 2.9029 4.0973 3.8172 3.8558 0.5127-0.1349 0.449-0.941 0.489-1.6967 0.04-0.7543 3.0911-4.1877 5.2383-5.4591 0.9173-0.5424 2.1072-0.08 4.0158-0.7157 0.609-0.2031 3.3564-2.1665 6.0844-4.8931 4.1359-4.1328 8.7029-11.36 8.3902-11.609" fill="#e51636"/><path d="m614.61 200.64c-14.509-0.0141-29.815 2.303-45.773 7.584-52.909 17.506-94.852 53.902-103 68.291-1.4078 2.4821 15.503 18.555 3.0742 33.311-10.049 11.929-29.773 4.0977-29.773 4.0977 17.13 10.906 26.648 21.171 27.688 23.1 0.73351 1.3632 1.1953 3.2617 1.1953 3.2617-15.841-10.986-30.288-20.288-45.887-27.734-5.9311-2.8284-81.31-36.826-102.84-23.867-12.231 7.3648 6.481 34.547 10.652 39.582 6.144 7.4166 21.522 20.485 34.732 27.605 9.4024 5.0661 9.7802 4.5959 9.9394 6.8223 0.0666 0.93725-2.9769 2.0766-6.8223 1.1875-3.3916-0.78538-17.068-8.6046-22.111-12.607-5.042-4.0046-15.131-11.869-15.131-11.869s-3.2838-1.2052-4.5859 0.80078c-4.014 6.1756 29.211 45.184 77.121 64.465 51.588 20.764 92.701 25.662 166.94 18.691 38.98-3.6601 78.538-18.985 98.867-25.809 13.776-4.627 25.5-8.0089 25.5-8.6035 0-0.59263-23.899-5.2799-49.232-7.5508-43.172-3.8695-66.448-1.9501-100.27-2.6836-47.771-1.0374-75.209 3.7074-122.97-4.8965-14.859-2.6748-31.447-9.3433-42.275-17.947-16.758-13.314-35.689-36.35-29.07-40.047 6.3775-3.5601 14.174 4.8163 17.363 8.0078 13.042 13.053 12.016 21.656 12.016 21.656s16.398 24.044 84.24 25.957c36.781 1.0374 56.925-16.358 88.697-26.814 46.867-15.426 50.138-21.203 107.61-32.072 58.811-11.121 86.551 9.9394 86.551 9.9394s10.917-45.263-39.303-86.623c-24.204-19.936-56.067-35.198-93.145-35.234zm-172.88 24.67c-3.0491-0.0242-12.34 2.1922-29.582 16.793-18.392 15.574-24.028 20.023-29.072 22.1-5.0438 2.0765-10.382 3.1162-9.7891 3.709 0.59275 0.5945 9.3488 2.9342 13.498 3.4121 9.0484 1.0374 14.225-0.57813 14.225-0.57813s-0.43111-13.811 6.541-19.744c12.066-10.269 33.521 1.3359 33.521 1.3359s7.8755-8.8683 9.7871-13.051c2.3728-5.192 1.1856-8.0117 1.1856-8.0117-1.7801-4.7456-7.4144-5.6372-9.7871-5.9336-0.1483-0.0185-0.32407-0.0296-0.52734-0.0312zm113.09 2.9805c4.0602 0.14951 6.4322 2.0525 7.4824 3.6758 1.3355 2.0616 5.037 7.6914-7.918 15.836-12.953 8.1446-18.948 1.9803-20.363 0.79297-1.4134-1.1891-4.6374-9.503 8.0898-16.518 5.372-2.9603 9.551-3.9034 12.709-3.7871zm-2.2598 6.207c-2.2424-0.0554-4.9756 0.70873-7.1699 2.332-3.9028 2.8859-8.032 5.994-5.7129 8.541 2.3191 2.545 8.2577-0.056 10.803-1.3008 2.5451-1.2448 7.6547-5.374 5.9395-7.9746-0.66779-1.0146-2.1153-1.5546-3.8594-1.5977zm67.143 94.633s-4.8786 1.4224-8.5332 2.4375c-3.6564 1.0169-10.971 2.6412-10.77 3.0469 0.20375 0.4075 15.442 10.769 20.727 12.803 5.2828 2.032 14.626 5.8918 17.879 6.7051 3.2508 0.81125 7.7207 1.4211 7.7207 2.2344 0 0.81312-6.0948 3.2506-14.223 6.7051-8.1261 3.4546-16.254 7.9237-16.254 8.5332 0 0.60937 26.211 3.0482 38.809 4.4707 12.598 1.4226 28.647 3.4531 32.711 4.0625 4.0621 0.60938 8.3288 1.8301 8.127 1.2188-0.20375-0.60937-1.6248-1.2186-5.8926-3.0469-4.2658-1.8282-20.522-11.784-29.461-18.084-8.9392-6.2978-23.975-18.285-29.869-22.553-5.8921-4.2676-10.971-8.5332-10.971-8.5332zm-92.361 239.43c-11.683-0.0285-22.229 3.9855-27.852 9.4219-16.322 15.778-15.439 37.381-15.439 37.381 0-0.00001 6.2622-0.40411 10.936 3.1504 2.8562 2.1728 4.0235 5.8117 3.416 6.0488-1.756 0.68725-6.7003-4.2557-17.197-2.4922-13.19 2.2135-22.684 16.318-22.088 17.387 0.71313 1.2725 9.7298-0.35704 25.541 3.7051 13.544 3.4804 25.937 12.019 27.357 15.135 0.47425 1.0391-4.7391 5.0135-13.475 22.449-5.7532 11.482-8.2573 23.324-9.0742 30.674-0.2315 2.0839-15.17-9.7535-33.113-12.223-19.144-2.634-25.778-1.7945-29.09-0.67578-2.056 0.69462-5.1206-0.676-5.7207-1.2188-0.84837-0.77063-0.8125-2.6409-0.8125-2.5391 0-0.50938-6.0272-0.60597-6.0605-0.54297-0.74838 1.3818 9.4121 10.733 12.031 17.633 6.0885 16.035 7.4207 28.765 5.6758 29.25-1.8264 0.50937-14.944-4.8572-20.482-7.5801-16.187-7.9575-18.476-12.023-19.908-11.615-1.0855 0.3075 0.80917 9.1492 3.0449 14.258 2.6544 6.0681 8.9934 13.109 6.3984 14.76-2.5932 1.6504-8.0239 0.97917-17.506-3.4238-8.0741-3.749-15.574-6.7676-15.574-6.7676s-0.50854 6.0546 0.51758 9.1387c1.3374 4.0158 3.1348 7.707 3.1348 7.707s0.66253 0.6096 1.5664 1.1524c0.90588 0.54275 3.9414 2.6387 3.9414 2.6387s-3.2385-3.0391-3.9941-4.834c-1.0836-2.5728-0.001-3.2789 0.6914-2.8418 6.2051 3.9102 9.6846 5.6976 16.559 5.9922 8.6688 0.37413 12.923-3.1891 14.117-7.9902 1.8301-7.3425-3.7159-14.64-5.959-16.414-2.2691-1.7968-3.5981-2.1432-4.502-3.5898-0.90388-1.4466-1.435-4.0625-0.16992-4.0625 1.2669 0 9.4783 4.8421 13.137 11.307 4.188 7.4 3.7768 16.534 0 20.713-4.8086 5.318-9.7832 6.502-9.7832 6.502s1.9881 1.6294 4.1738 3.791c2.734 2.7062 2.5962 4.2958 3.0371 5.8535 0.27975 0.98362 5.6733-1.7901 9.1074-3.9609 3.436-2.171 6.1638-8.2973 8.6348-6.332 2.1264 1.6875 0.10303 7.2456-4.6055 10.43-4.9605 3.3545-11.19 6.1504-11.207 8.123-0.0408 4.7734 3.9979 12.697 8.8047 16.418 7.5778 5.8662 16.315 7.6908 19.334 7.1426 6.3311-1.1485 27.223-8.5952 44.049-32.877 8.88-12.814 8.6055-20.416 8.6055-20.416s-4.3035-1.9984-4.9277-3.7266c-0.44637-1.2374 20.535-6.7698 40.51-30.744 11.177-13.414 15.137-22.164 20.994-43.086 2.7432-9.7894 1.2203-20.247 3.4726-20.414 1.3466-0.0981 2.2755 4.6088 2.4551 7.6836 0.17963 3.0749-1.0163 8.4648 0.4043 7.2793 6.0552-5.0438 18.66-17.78 22.254-36.707 4.5789-24.095 5.1177-44.006-20.996-59.471-7.844-4.6459-16.37-6.5586-24.363-6.5781zm55.381 33.23c-3.4558 0.002 2.8488 11.109-2.7949 32.719-8.339 31.936-27.43 43.464-29.293 46.416-1.4559 2.3025-11.389 28.102-21.396 40.594-9.8931 12.347-18.982 20.101-35.219 29.736-2.8692 1.7022-0.33215 3.9467-0.4414 5.373-0.1075 1.4262-3.7841 19.873-19.984 34.871-24.782 22.943-37.179 21.515-38.934 23.271-0.76688 0.76687 5.1546 5.044 11.08 4.4883 5.7476-0.54088 24.038-9.1875 39.062-30.395 11.958-16.88 14.179-29.788 14.373-30.705 0.43713-2.0838 1.0976-2.7418 3.0723-1.4414 0.78913 0.51863 1.7066 3.3056 2.6328 2.9629 8.2279-3.0525 30.972-22.421 51.52-52.221 14.97-21.709 28.618-56.742 31.758-71.086 4.3881-20.066 0.10857-32.994-4.6074-34.436-0.32357-0.0987-0.59774-0.14858-0.82812-0.14844zm-475.03 71.2c-0.37416 0.0926-1.9725 4.0353-3.9434 5.2578-1.9727 1.2208-2.1628 0.27933-4.041 2.252-1.8764 1.9746-7.8855 10.81-0.4707 17.189 4.0399 3.475 11.74 2.4418 14.746 1.4082 2.9952-1.028 5.3794-5.0206 4.1328-7.5137-1.128-2.2542-3.5685-1.3153-5.2578-3.6641-1.6893-2.3469-2.0634-5.1679-3.1934-7.6074-1.128-2.4414-1.884-3.1114-1.6914-4.2246 0.37603-2.1598-0.28125-3.0976-0.28125-3.0976zm-23.92 22.326c-0.20152-0.00057-0.40007 0.008-0.59375 0.0254-3.0989 0.2815-8.2655 0.65791-17.844 3.3789-9.5801 2.7229-23.293 6.5769-23.293 7.7031 0 0.92425 19.798 2.6742 26.486 2.5352 8.9225-0.187 19.254-4.3198 20.66-8.0781 1.3198-3.5216-2.3932-5.5558-5.416-5.5644zm114.55 5.4668s-3.8495 0.00004-7.7949 0.46679c-3.9454 0.46863-8.8301 1.4102-8.8301 1.4102s6.0112 6.1054 9.7695 11.271c3.7565 5.1661 8.633 12.929 8.1699 14.465-0.2815 0.93725-5.3521-1.1283-29.584 6.1309-19.064 5.7106-28.461 12.274-29.117 12.463-0.65762 0.18712-1.2174-3.9433-3.8476-7.8887s-5.2626-7.7012-5.6367-7.7012c-0.37413 0-0.84813 9.2701-3.9062 15.309-3.2342 6.3868-6.6928 11.064-8.584 9.5781-2.6303-2.0652 2.7228-9.579 5.166-16.342 1.7245-4.777 1.2207-14.928 1.2207-14.928s-2.3478-2.627-2.8164-2.627c-0.47049 0-3.567 8.3555-6.9512 11.551-3.3823 3.1952-7.8882 8.0775-9.6738 5.4473s6.4811-7.2311 9.1113-13.055c2.6303-5.8218 4.5064-9.6756 4.6953-16.061 0.18707-6.3866 0.37446-6.0128-0.28125-6.1035-0.65756-0.0926-5.7338 2.3405-12.684 2.248-9.4023-0.12787-9.5754-2.8111-10.422-3-0.84651-0.18712-1.7878 4.596-10.52 7.9746-6.8405 2.6488-12.114 2.263-13.24 3.5781-1.128 1.3151-1.13 8.1623 1.2188 15.02 1.6263 4.7511 6.8549 12.963 3.7578 14.002-3.2434 1.0872-4.1339-1.4147-7.4199-9.3926-2.219-5.3884-2.3466-6.8564-2.7227-7.2324-0.37603-0.376-1.692-0.56537-2.3496-0.1875-0.65571 0.376-4.1311 4.5096-4.6016 5.2598-0.47048 0.75212 2.3485 4.4116 3.4766 6.1973 1.1262 1.7856 3.6614 6.3855 2.5352 8.2656-1.1262 1.88-1.8794 2.0653-2.5352 1.2207-0.65758-0.84463-4.2514-11.573-14.934-17.656-12.212-6.9554-26.272 1.1018-27.615 12.768-1.5448 13.424 11.917 27.842 36.443 35.801 26.86 8.717 42.73-2.084 42.73-2.084s24.983 13.619 72.508 8.7363c48.634-4.9956 65.272-17.095 70.629-21.133 5.1754-3.8991 5.8217-6.2925 5.1641-6.1055-0.65575 0.189-7.7976 4.2292-13.338-1.0312-9.9431-9.4412-4.2269-29.959-5.166-30.711-0.93912-0.75387-3.4915 0.74688-6.3848 0.1875-4.8864-0.94287-6.5617-5.6465-7.5137-5.541-1.693 0.18712-3.1978 8.3576-10.707 7.6074-6.1014-0.60762-8.9239-6.3888-8.6016-16.438 0.27413-8.4984 1.1816-11.74 1.1816-11.74zm238.85 27.148c1.8032-0.12047 4.2759 0.87171 6.6973 4.0371 4.816 6.2978 1.3537 20.532-2.4824 20.443-3.5582-0.0834-0.33277-6.3746-0.16602-7.9473 0.0519-0.50013 0.71602-3.0784-0.91211-7.5312-1.5708-4.3029-6.4208-4.8599-5.791-7.2012 0.25287-0.94085 1.2518-1.7071 2.6543-1.8008zm-414.78 38.49c-0.83909-0.40012-5.7052 19.492 33.045 29.715 10.612 2.8006 30.739 0.77747 38.832-1.6602 6.5757-1.9839 7.7665-3.3975 8.3203-3.4883 0.94838-0.15938 2.2188 0.00056 2.2188 0.63281 0 0.63337 0.0801 1.7441 0.0801 1.7441s19.812 8.8744 48.658 8.3984c28.844-0.476 59.438-6.2596 81.943-16.877 11.219-5.2939 11.969-6.3405 12.365-7.2129 0.39637-0.8725 0.94889-3.4042 0.86914-4.5137-0.0796-1.1115-0.31836-3.4102-0.31836-3.4102s-7.7632 5.7839-39.225 15.771c-16.519 5.2438-36.299 8.5574-67.916 6.8125-28.224-1.556-36.919-8.127-39.232-8.5566-2.1376-0.3965-14.742 10.039-46.037 1.5059-25.284-6.8961-30.117-17.2-33.604-18.861zm369.32 4.1602c-3.6195 0.0121-10.129 1.7995-17.938 10.799-10.427 12.016-14.177 27.399-13.416 28.418 0.76312 1.0188 1.9089-7.7573 17.422-19.518 15.513-11.762 18.69-9.2171 20.533-12.523 0.89275-1.6004-0.95316-5.6521-4.0039-6.7969-0.50566-0.1894-1.3912-0.38293-2.5977-0.3789z" transform="matrix(.8 0 0 -.8 0 792)" fill="#ffc82d"/><path d="m421.34 252.61c-2.595-0.021-5.1096 0.52582-7.3691 1.9043-12.599 7.6851-4.4101 27.966 7.9356 40.188 12.096 11.971 28.451 18.624 37.021 14.73 9.9654-4.5288 7.8242-13.346 7.8242-13.346s-5.4787 9.5668-14.99 9.3223c-14.739-0.37788-26.578-17.385-26.578-17.385s2.2885-0.83659 7.3027-1.6367c4.012-0.64087 7.4355-1.7637 7.4355-1.7637s-5.5739-2.0488-10.088-3.2695c-4.6586-1.2595-9.4394-2.7773-9.4394-2.7773s-4.4488-9.2649 2.7715-15.244c8.0612-6.6775 22.17 0.12695 22.17 0.12695s-12.751-10.759-23.996-10.85zm112.78 214.32s-5.3828 3.1278-7.6406 4.1113c-2.258 0.98362-6.1607 3.3318-6.1367 3.9356 0.0593 1.3319 3.4759 1.2139 12.504 2.4883 8.8392 1.2466 14.649 5.2297 14.299 8.3359-0.5205 4.6308-8.6256 12.307-22.344 15.723-13.72 3.4156-36.757 8.0696-43.529 8.127-2.6099 0.0222-1.8519 1.7354-0.92578 2.2578 0.92625 0.5205 7.1962 5.2654 7.4277 7.5234 0.23164 2.258-2.0871 6.0279-9.1055 8.0469-8.0464 2.3154-20.086 2.6031-22.459 2.4883-2.3746-0.11663-2.3747 0.92711-2.084 1.5625 0.289 0.63725 5.265 4.4572 5.6133 7.582 0.34637 3.1266-1.1289 8.1166-22.979 10.402-33.921 3.549-44.804 3.8183-44.861 5.1113-0.0575 1.2744 3.3783 0.82841 18.58 1.9102 13.835 0.9855 37.387-1.4707 46.539-5.6719 14.124-6.483 6.3308-16.16 6.3086-16.729-0.0574-1.6208 15.168 0.0576 19.336-1.2168 6.0441-1.8468 11.783-8.0313 10.129-13.197-1.4485-4.5141-3.8774-5.6716-3.9941-6.1348-0.11487-0.463 14.016 0.31892 31.895-3.7617 10.651-2.4321 25.469-9.5522 30.1-18.871 3.7101-7.4666-1.7957-13.835-9.668-15.859-7.8722-2.0264-10.723-1.6876-10.939-2.084-0.34636-0.63713 2.2718-1.3647 3.5312-2.1445 2.2006-1.3595 4.8809-3.6445 4.8809-3.6445s-1.5822-0.15499-2.1602-0.20313c-0.6945-0.0575-2.3164-0.0879-2.3164-0.0879zm-268.26 1.998c-1.4466 0-2.6914 0.0859-2.6914 0.0859s-7.2929 6.1687-1.1562 15.262c4.7456 7.0369 19.778 3.5302 20 3.7969 0.2205 0.26487-0.49247 3.7476-0.35547 5.6055 0.17414 2.3395 1.7689 5.737 10.906 7.5449 6.9369 1.3726 21.672 1.2389 29.883 0.53125 9.5986-0.82614 10.15-0.17552 10.152-1.1035 0-0.30925-1.2809-0.92523-3.9297-1.0586-2.6488-0.1315-16.465-0.26614-32.227-3.1816-9.306-1.719-10.022-6.6191-8.9629-8.7363 1.0744-2.1468 3.0907-2.9585 2.6055-3.8848-0.42237-0.80764-2.0808 0.12946-6.5801-0.043-4.6326-0.17964-14.21-0.48924-17.166-4.9902-2.9581-4.5011 3.0508-9.7422 3.0508-9.7422s-2.0715-0.0859-3.5293-0.0859zm-53.84 52.383c-5.0382 0-5.0371 2.5137-5.0371 3.3398 0 1.0059 0.42806 3.3379 4.3828 3.3379 1.8707 0 3.8435 0.14303 4.5918 0.33203 3.086 0.65563 3.7822 1.627 4.0156 5.5039 0.25925 4.1436 0.25781 7.736 0.25781 27.682v23.086c0 11.968 0.00009 22.298-0.64453 27.674-0.51488 3.7435-1.0615 5.1518-2.084 5.3574-1.4966 0.33525-2.8503 0.48633-4.2969 0.48633-3.9528 0-4.2578 2.4509-4.2578 3.2012 0 1.0446 0.4635 3.4707 4.7812 3.4707 3.0174 0 6.9547-0.12536 10.428-0.24023l6.1016-0.1543 5.8887 0.14258c3.8158 0.113 8.5638 0.25195 13.002 0.25195 4.4215 0 4.6465-2.8891 4.6465-3.4707 0-1.5449-1.213-3.2012-3.8711-3.2012-1.6004 0-4.4223-0.25956-6.1172-0.50781-0.72611-0.11475-2.5319-0.40758-2.8672-5.0957-0.39086-5.5606-0.39062-15.919-0.39062-27.914v-6.6856c3.1064 3.4268 49.969 55.186 49.969 55.186l0.0918 0.0801c5.8089 5.1475 9.7742 8.3434 17.467 9.0547 2.847 0.27049 5.2598 0.27148 9.2461 0.27148h11.414c1.4522 0 5.3125 0.00055 5.3125-3.4707 0-1.6004-1.1944-3.2109-3.8691-3.2109-0.93363 0-3.5055-0.62913-7.9121-2.3906-6.2941-2.4506-12.277-7.6958-17.303-12.512-0.1-0.1075-15.188-16.488-15.188-16.488-0.001-0.009-29.464-31.692-36.223-38.957 6.1181-6.3294 22.908-23.187 26.812-26.768 5.5699-5.105 11.725-10.326 15.178-10.326 1.6579 0 3.1758 0.41522 3.4648 5.4238 0.263 4.1289 0.26367 7.7156 0.26367 27.609v19.096c0 17.154 3.9241 28.683 12.361 36.275 10.593 9.5856 24.527 9.584 30.482 9.584 7.9389 0 18.365-1.1301 28.615-9.9434 11.59-9.9264 13.182-25.577 13.182-41.014v-13.998c0-19.899-0.001-23.484 0.25977-27.6 0.252-4.4584 1.1777-5.117 3.0801-5.4707 1.491-0.2445 2.1572-0.35742 3.3965-0.35742 3.9324 0 4.5137-2.089 4.5137-3.3301 0-2.2171-1.6458-3.3398-4.8984-3.3398-3.3285 0-7.8883 0.16059-11.221 0.27734 0 0-3.6369 0.10938-3.6758 0.10938-0.0556 0-0.34764-0.0117-0.34766-0.0117-7.3036-0.31125-12.039-0.375-14.723-0.375-3.2545 0-4.9043 1.1227-4.9043 3.3398 0 1.0002 0.42827 3.332 4.3848 3.332 1.5522 0 3.4668 0.15038 4.1855 0.32813 3.1081 0.66136 3.7606 1.58 3.9902 5.4883 0.25936 4.1251 0.25976 7.7101 0.25976 27.609v16.354c0 13.577-0.51442 24.477-6.9512 30.914-5.8144 5.805-13.495 6.4316-16.531 6.4316-4.4825 0-9.7624-0.57906-14.977-4.8672-5.6589-4.6196-9.4238-11.576-9.4238-30.516v-18.316c0-19.899 0.00045-23.484 0.25781-27.6 0.2575-4.4584 1.1801-5.115 3.0898-5.4688 1.4838-0.2445 2.1495-0.35743 3.3887-0.35743 3.9565 0 4.2617-2.5485 4.2617-3.332 0-3.3396-3.7965-3.3398-5.043-3.3398l-9.6152 0.22461-6.4746 0.16601-25.117 0.008-7.459-0.21875-6.0488-0.17969c-3.7028 0-4.2578 2.0932-4.2578 3.3398 0 2.6674 2.4647 3.2143 3.3945 3.4199 0.0185 0.004 0.0624 0.0142 0.10157 0.0234 0.0221 0.0723 0.0508 0.19971 0.0508 0.4961 0 1.3208-2.9216 4.7532-5.498 7.7891l-0.55078 0.64648c-2.2432 2.6265-10.022 10.704-16.883 17.83-2.8119 2.9155-5.3859 5.5886-7.3809 7.6836v-1.0332c0-19.946 0.00031-23.543 0.25781-27.676 0.2575-4.4732 1.1838-5.1324 3.0898-5.4824 1.4485-0.2445 2.129-0.35938 3.2774-0.35938 3.8046 0 4-2.7803 4-3.3379 0-2.2171-1.6558-3.3398-4.9121-3.3398l-9.2832 0.22461-6.5938 0.17383-5.793-0.14063c-3.7361-0.1185-8.3786-0.25781-12.572-0.25781zm-75.02 30.744c-0.0845-0.0158-0.16769-0.0137-0.25 0.01-1.8282 0.513-2.1931 6.1367-2.0469 13.455 0.14636 7.3185 0.58516 9.5902-0.0742 10.027-0.66138 0.43725-8.8157-3.4295-15.441-6.5117-8.3428-3.8806-19.251-10.908-19.908-10.762-0.8002 0.17775 7.4659 10.907 10.32 17.053 3.3656 7.248 6.3681 13.905 5.416 14.271-0.95209 0.36675-5.4142-1.6838-11.051-3.6602-5.6365-1.9746-11.637-4.2435-12.076-3.7305-0.44085 0.51125 6.7908 8.4899 10.16 13.76 3.3675 5.2679 4.5117 6.3054 4.5117 7.0371 0 0.7335-0.91472 1.67-1.6445 1.7441-0.73165 0.074-5.3438 0.3672-9.0762 0.43945-3.7305 0.0721-7.9733-0.29251-8.4883 0.14649-0.51309 0.439 6.9328 9.0873 12.66 14.711 8.1242 7.976 14.787 11.122 15.006 11.49 0.21857 0.36686-3.9509 2.5981-9.0762 4.9746-11.197 5.1975-13.32 4.3174-13.539 5.1973-0.15004 0.602 9.4631 3.5185 16.393 5.9414 9.0022 3.1451 16.395 3.6447 18.369 3.8652 1.9765 0.22039-1.8313 2.0458-3.0742 2.7793-1.2429 0.73164-3.6582 1.7527-3.6582 2.2695 0 1.0242 16.51 9.1799 30.334 10.367 14.492 1.2448 27.39-0.66248 34.438-4.3652 1.393-0.73164 1.3206-1.8306-0.0723-2.3418-1.7616-0.64839-4.1038 2.6157-24.887 2.123-18.516-0.44089-31.762-5.4167-32.348-6.0762-0.50387-0.563 5.0495-2.4894 7.4648-3.7324 2.4172-1.2448 5.4157-2.1967 5.123-3.5137-0.32789-1.4726-5.3935-1.1835-10.611-1.7559-6.659-0.7335-23.784-5.0531-24.152-5.4902-0.36675-0.43714 5.124-3.0737 7.832-4.6094 2.7081-1.5355 5.3426-3.2208 6.1465-3.3672 0.80575-0.14625 2.1843-0.79434 2.2695-1.4648 0.22041-1.7541-1.4638-2.0455-2.2695-2.5586-0.8039-0.51125-3.6078-3.0962-12.514-10.102-5.4884-4.3178-10.684-9.5865-10.977-10.1-0.29451-0.51125 4.6075-0.65635 8.4121-0.80273 3.8065-0.14638 5.7881-0.36766 6.8106-0.87891 1.0243-0.51125 2.1211-0.95056 2.0488-2.1953-0.0722-1.2429-1.9056-3.8776-5.123-8.123-2.3617-3.1175-6.8807-7.8344-6.7344-8.2715 0.14634-0.43713 3.4402 0.87636 7.832 2.1934 4.3918 1.3188 9.6361 3.794 10.881 2.8438 1.2448-0.95214 0.70456-5.1193-2.3906-11.258-4.3196-8.5632-9.0874-14.549-8.5762-14.916 0.51124-0.36675 8.1381 4.5243 13.188 7.3047 5.0512 2.7802 13.601 7.3806 14.553 7.2344 0.95025-0.14636 2.6462-3.7184 2.4258-7.0137-0.2205-3.2934-0.8025-9.2934-0.4375-9.5156 0.36487-0.22038 9.2173 10.248 13.244 13.834 4.0269 3.5879 8.1955 6.8785 10.172 8.4883 1.9782 1.6096 5.1239 4.6861 5.8574 5.3438 0.73164 0.65938 2.3402 0.51406 2.7051-0.80468 0.36675-1.317 0.0741-7.8343 0-10.029-0.0722-2.1931 0.14692-8.3401 0.51367-8.6348 0.36675-0.29262 4.1738 7.3201 7.9043 12.734 2.5729 3.7324 8.199 12.735 9.8086 15.443 1.6097 2.708 4.208 6.2369 5.0508 5.709 2.3432-1.4651-4.8453-12.4-8.7832-19.504-4.0974-7.3906-16.384-31.57-17.117-31.643-0.73164-0.0723-1.2559 11.773-1.3281 16.822-0.0722 5.0494-0.21723 11.926-0.58398 12.148-0.36675 0.2205-7.5407-6.6616-12.664-11.711-5.1216-5.0475-11.562-11.855-12.881-14.855-1.2363-2.8132-2.7292-7.2279-3.9961-7.4648zm60.633 62.605c-0.7465 0.0945-1.9903 4.6668-3.1035 8.3418-1.091 3.6064-4.797 15.876-5.7305 22.322-0.9335 6.4478 2.3933 13.083 3.5918 13.684 0 0 2.5196-17.824 3.4531-22.309 0.93364-4.4844 5.0117-15.784 5.0117-17.371 0-1.1984-2.4762-4.7606-3.2227-4.668zm183.87 33.301c-0.0466-0.006-0.0991-0.004-0.1582 0.006-2.2846 0.38096-13.739 12.224-21.701 27.652-9.6431 18.688-11.894 31.567-12.031 32.258-0.17039 0.85386-4.4298-5.1286-4.8652-14.166-0.68161-14.165 2.9859-27.735 0-28.758-2.8359-0.9725-14.677 22.19-17.92 28.59-3.2434 6.3998-17.069 31.147-14.852 33.025 2.5321 2.1488 12.972-17.836 15.875-22.615 2.7729-4.566 10.582-18.518 10.582-18.518s-0.2552 15.276 2.3047 20.311c2.5581 5.0345 6.0576 11.52 9.5566 10.838 3.499-0.68163 1.194-2.9863 3.0723-8.6191 1.8782-5.6328 11.523-27.225 14.85-32.857 3.3268-5.6329 15.87-24.065 15.529-26.883-0.0195-0.16098-0.10244-0.24701-0.24219-0.26367zm74.859 14.273c-2.2186 0.01-3.6776 0.20412-4.1055 0.4375-0.85762 0.46675-2.1039 2.6473-3.1152 5.1387-1.0112 2.4895-2.0234 6.6915-2.0234 7.1602 0 0.46862 2.413-0.85586 11.832 1.791 9.4208 2.6451 12.766 2.8002 13.389 2.6445 0.62237-0.15563 2.2566-3.6546 3.3476-6.459s2.3359-6.0703 2.3359-6.0703c-0.31125-0.77988-6.0705-2.9613-13-3.9727-3.4638-0.50569-6.4416-0.67966-8.6602-0.66992zm-301.07 45.05c-0.87544 0.14386-3.3846 1.4141-4.6035 1.8047-1.3929 0.4465-5.5689 1.9369-5.8672 2.2852-0.29075 0.339 2.285 2.9341 3.1797 4.127 0.89662 1.1929 3.7798 4.4245 4.3262 4.4727 0.22237 0.0204 3.6809-1.4915 5.5684-2.0879 1.8893-0.5965 3.6275-1.3931 4.1738-1.9394 0.2575-0.2575-1.9869-3.5272-3.1816-5.0684-1.1929-1.5411-2.9317-3.33-3.3281-3.5801-0.0498-0.0312-0.14252-0.0342-0.26758-0.0137z" transform="matrix(.8 0 0 -.8 0 792)" fill="#fff"/></g></g></svg>
